# xmcd CD database file
#
# Track frame offsets:
#	150
#	16002
#	28115
#	42690
#	60057
#	79192
#	92297
#	108437
#	123620
#	140315
#
# Disc length: 2110 seconds
#
# Revision: 3
# Processed by: cddbd v1.4PL0 Copyright (c) Steve Scherf et al.
# Submitted via: CDex 1.40Release
#
DISCID=74083c0a
DTITLE=Judds - Greatest Hits
DYEAR=1988
DGENRE=Country
TTITLE0=Why Not Me
TTITLE1=Rockin' With The Rhythm Of The Rain
TTITLE2=Mama He's Crazy
TTITLE3=Give A Little Love
TTITLE4=Grandpa (Tell Me 'bout The Good Old Days)
TTITLE5=Girls Night Out
TTITLE6=Change Of Heart
TTITLE7=Have Mercy
TTITLE8=Cry Myself To Sleep
TTITLE9=Love Is Alive
EXTD=YEAR: 1988 ID3G: 2
EXTT0=
EXTT1=
EXTT2=
EXTT3=
EXTT4=
EXTT5=
EXTT6=
EXTT7=
EXTT8=
EXTT9=
PLAYORDER=
